<svg id="Layer_1" data-name="Layer 1" xmlns="http://www.w3.org/2000/svg" xmlns:xlink="http://www.w3.org/1999/xlink" width="85.6" height="154.1" viewBox="0 0 85.6 154.1"><defs><linearGradient id="linear-gradient" x1="23.88" y1="90.66" x2="77.79" y2="90.66" gradientUnits="userSpaceOnUse"><stop offset="0" stop-color="#edc70a"/><stop offset="0.14" stop-color="#edc50b"/><stop offset="0.15" stop-color="#edc40b"/><stop offset="0.27" stop-color="#edc10c"/><stop offset="0.36" stop-color="#efb811"/><stop offset="0.42" stop-color="#f0ac17"/><stop offset="0.59" stop-color="#f1a31c"/><stop offset="0.86" stop-color="#f48928"/><stop offset="1" stop-color="#f67a30"/></linearGradient><clipPath id="clip-path"><path d="M23.9,64.8C56.8,84.6,43,143,43,143c4.5-15.6,29.5-89.2,34.1-102.6C64.4,75,23.9,64.8,23.9,64.8M77.1,40.4c.2-.6.5-1.3.7-2.1l-.7,2.1" style="fill:url(#linear-gradient)"/></clipPath><linearGradient id="linear-gradient-3" x1="-239.02" y1="628.16" x2="-238.57" y2="628.16" gradientTransform="matrix(118.19, 0, 0, -118.19, 28273.29, 74330.19)" xlink:href="#linear-gradient"/><clipPath id="clip-path-2"><path d="M41.6,143.8S61.5,67.4,1.3,58.2c6,1.3,30.5,11,40.3,85.6M1.3,58.2,0,58l1.3.2" style="fill:none"/></clipPath><radialGradient id="radial-gradient" cx="-238.3" cy="628.46" r="0.35" gradientTransform="matrix(97.16, 0, 0, -97.16, 23176.72, 61165.24)" gradientUnits="userSpaceOnUse"><stop offset="0" stop-color="#edc70a"/><stop offset="0.41" stop-color="#edc50b"/><stop offset="0.59" stop-color="#eebe0f"/><stop offset="0.73" stop-color="#f0b115"/><stop offset="0.85" stop-color="#f29f1e"/><stop offset="0.95" stop-color="#f48829"/><stop offset="1" stop-color="#f67a30"/></radialGradient><clipPath id="clip-path-3"><path d="M40.5,27.6a17.3,17.3,0,1,0,4.7-.7,15.3,15.3,0,0,0-4.7.7" style="fill:none"/></clipPath><radialGradient id="radial-gradient-2" cx="-238.86" cy="627.15" r="0.35" gradientTransform="matrix(49.84, 0, 0, -49.84, 11949.68, 31301.4)" xlink:href="#radial-gradient"/><clipPath id="clip-path-4"><path d="M66,109.6a10.3,10.3,0,0,0-1.4,4.6c-.3,3.8-2,14.1-11.1,21.2,0,0,4.1-10.2,0-13.1a102.5,102.5,0,0,1-6,11.8c-3.5,5.6-2.7,20-2.7,20s25.9-10.7,24-47c0,0-1.3.2-2.8,2.5" style="fill:none"/></clipPath><radialGradient id="radial-gradient-3" cx="-239.24" cy="630.17" r="0.35" gradientTransform="matrix(53.09, 0, 0, -53.09, 12757.87, 33585.02)" gradientUnits="userSpaceOnUse"><stop offset="0" stop-color="#edc70a"/><stop offset="0.2" stop-color="#eec10d"/><stop offset="0.46" stop-color="#efb214"/><stop offset="0.74" stop-color="#f39821"/><stop offset="1" stop-color="#f67a30"/></radialGradient><clipPath id="clip-path-5"><path d="M40.6,154.1s.8-14.4-2.6-20a86.6,86.6,0,0,1-6-11.8c-4.1,2.9,0,13.1,0,13.1-9.1-7.1-10.8-17.4-11.1-21.2a9.3,9.3,0,0,0-1.5-4.6c-1.4-2.3-2.7-2.5-2.7-2.5-2,36.3,23.9,47,23.9,47" style="fill:none"/></clipPath><radialGradient id="radial-gradient-4" cx="-238.27" cy="630.17" r="0.35" gradientTransform="matrix(53.09, 0, 0, -53.09, 12677.85, 33585.02)" xlink:href="#radial-gradient-3"/><clipPath id="clip-path-6"><path d="M63,34.6a15.1,15.1,0,0,1,.9,1.8c7.4-3.4,14.7-7.2,21.7-11.3-7.7,2.8-15.2,6-22.6,9.5" style="fill:none"/></clipPath><radialGradient id="radial-gradient-5" cx="-241.22" cy="625.68" r="0.35" gradientTransform="matrix(25.36, 0, 0, -25.36, 6191.56, 15897.97)" gradientUnits="userSpaceOnUse"><stop offset="0" stop-color="#edc70a"/><stop offset="0" stop-color="#edc50c"/><stop offset="0" stop-color="#efbf13"/><stop offset="0" stop-color="#f2b51e"/><stop offset="0" stop-color="#f6a72f"/><stop offset="0" stop-color="#f6a630"/><stop offset="0.86" stop-color="#f6a630"/><stop offset="1" stop-color="#f6a630"/></radialGradient><clipPath id="clip-path-7"><path d="M64.8,39.2c.1.3.1.6.2.9l.2,1,13.3-3.6a128.1,128.1,0,0,0-13.7,1.7" style="fill:none"/></clipPath><radialGradient id="radial-gradient-6" cx="-242.91" cy="625.24" r="0.35" gradientTransform="matrix(14.23, 0, 0, -14.23, 3527.79, 8935.12)" xlink:href="#radial-gradient-5"/><clipPath id="clip-path-8"><path d="M15.1,58.1c4.4-1.5,8.7-3.1,12.9-5l-.4-.8a3.6,3.6,0,0,1-.4-.9,119.4,119.4,0,0,0-12.1,6.7" style="fill:none"/></clipPath><radialGradient id="radial-gradient-7" cx="-236.5" cy="627.25" r="0.35" gradientTransform="matrix(14.63, 0, 0, -14.63, 3482.2, 9232.98)" xlink:href="#radial-gradient-5"/><clipPath id="clip-path-9"><path d="M2.2,52.6c8.1-.9,16.1-2.1,24.1-3.8-.1-.3-.1-.7-.2-1v-.9A242.3,242.3,0,0,0,2.2,52.6" style="fill:none"/></clipPath><radialGradient id="radial-gradient-8" cx="-236.83" cy="627.04" r="0.35" gradientTransform="matrix(24.96, 0, 0, -24.96, 5926.43, 15703.09)" xlink:href="#radial-gradient-5"/><clipPath id="clip-path-10"><path d="M12,42.3c4.6.8,9.2,1.3,13.8,1.7a6.6,6.6,0,0,1,.1-2H22c-3.3,0-6.7.2-10,.4" style="fill:none"/></clipPath><radialGradient id="radial-gradient-9" cx="-236.07" cy="625.69" r="0.35" gradientTransform="matrix(14.04, 0, 0, -14.04, 3332.7, 8825.96)" xlink:href="#radial-gradient-5"/><clipPath id="clip-path-11"><path d="M26.3,39.3a3.8,3.8,0,0,1,.3-1l.3-.9A217.6,217.6,0,0,0,3.1,31.5c7.6,2.9,15.3,5.6,23.2,7.8" style="fill:none"/></clipPath><radialGradient id="radial-gradient-10" cx="-236.89" cy="626" r="0.35" gradientTransform="matrix(25.11, 0, 0, -25.11, 5964.04, 15755.86)" xlink:href="#radial-gradient-5"/><clipPath id="clip-path-12"><path d="M28,34.7a14,14,0,0,1,1-1.6,119.5,119.5,0,0,0-12.4-6.2q5.5,4.2,11.4,7.8" style="fill:none"/></clipPath><radialGradient id="radial-gradient-11" cx="-236.67" cy="624.27" r="0.35" gradientTransform="matrix(14.73, 0, 0, -14.73, 3508.61, 9225.32)" xlink:href="#radial-gradient-5"/><clipPath id="clip-path-13"><path d="M22,22.2c2.8,3,5.7,5.9,8.6,8.7.2-.1.2-.3.4-.4l.3-.3.7-.7c-5.8-5.8-11.9-11.2-18.2-16.4,2.6,3.1,5.4,6.2,8.2,9.1" style="fill:none"/></clipPath><radialGradient id="radial-gradient-12" cx="-237.49" cy="625.06" r="0.35" gradientTransform="matrix(25.56, 0, 0, -25.56, 6092.52, 15996.74)" xlink:href="#radial-gradient-5"/><clipPath id="clip-path-14"><path d="M34.3,27.6l.8-.5.9-.5c-2.6-3.9-5.3-7.6-8.1-11.2a128.3,128.3,0,0,0,6.4,12.2" style="fill:none"/></clipPath><radialGradient id="radial-gradient-13" cx="-237.81" cy="623.11" r="0.35" gradientTransform="matrix(14.73, 0, 0, -14.73, 3535.01, 9200.44)" xlink:href="#radial-gradient-5"/><clipPath id="clip-path-15"><path d="M38.4,25.5l1-.4.9-.3A243.6,243.6,0,0,0,31.7,1.9c1.8,7.9,4.1,15.8,6.7,23.6" style="fill:none"/></clipPath><radialGradient id="radial-gradient-14" cx="-238.44" cy="624.42" r="0.35" gradientTransform="matrix(25.2, 0, 0, -25.2, 6045.13, 15750.5)" xlink:href="#radial-gradient-5"/><clipPath id="clip-path-16"><path d="M43.2,24.3h2a128.2,128.2,0,0,0-.5-13.8q-1.1,6.9-1.5,13.8" style="fill:none"/></clipPath><radialGradient id="radial-gradient-15" cx="-239.35" cy="622.38" r="0.35" gradientTransform="matrix(13.99, 0, 0, -13.99, 3393.56, 8726.64)" xlink:href="#radial-gradient-5"/><clipPath id="clip-path-17"><path d="M48,24h.9l1,.2C51.3,16.3,52.3,8.2,53,0a222.4,222.4,0,0,0-5,24" style="fill:none"/></clipPath><radialGradient id="radial-gradient-16" cx="-239.48" cy="624.3" r="0.35" gradientTransform="matrix(24.94, 0, 0, -24.94, 6023.69, 15583.54)" xlink:href="#radial-gradient-5"/><clipPath id="clip-path-18"><path d="M52.6,25.4l.9.4.9.4c1.7-4.3,3.2-8.6,4.6-13a118.2,118.2,0,0,0-6.4,12.2" style="fill:none"/></clipPath><radialGradient id="radial-gradient-17" cx="-240.81" cy="622.82" r="0.35" gradientTransform="matrix(14.56, 0, 0, -14.56, 3562.53, 9089.38)" xlink:href="#radial-gradient-5"/><clipPath id="clip-path-19"><path d="M56.7,27.6l.8.5.8.7c5-6.5,9.6-13.2,14-20.2-5.5,6.1-10.7,12.4-15.6,19" style="fill:none"/></clipPath><radialGradient id="radial-gradient-18" cx="-240.49" cy="624.83" r="0.35" gradientTransform="matrix(25.55, 0, 0, -25.55, 6209.84, 15985.15)" xlink:href="#radial-gradient-5"/><clipPath id="clip-path-20"><path d="M60.4,30.8l1.2,1.5a127.7,127.7,0,0,0,10.1-9.4C67.8,25.4,64,28,60.4,30.8" style="fill:none"/></clipPath><radialGradient id="radial-gradient-19" cx="-242.06" cy="623.88" r="0.35" gradientTransform="matrix(14.78, 0, 0, -14.78, 3642.93, 9246.66)" xlink:href="#radial-gradient-5"/></defs><title>final_copy</title><path d="M23.9,64.8C56.8,84.6,43,143,43,143c4.5-15.6,29.5-89.2,34.1-102.6C64.4,75,23.9,64.8,23.9,64.8M77.1,40.4c.2-.6.5-1.3.7-2.1l-.7,2.1" style="fill:url(#linear-gradient)"/><g style="clip-path:url(#clip-path)"><rect x="23.9" y="38.3" width="53.9" height="104.66" style="fill:url(#linear-gradient-3)"/></g><g style="clip-path:url(#clip-path-2)"><rect y="58" width="61.5" height="85.83" style="fill:url(#radial-gradient)"/></g><g style="clip-path:url(#clip-path-3)"><rect x="25.7" y="26.9" width="39" height="37.05" style="fill:url(#radial-gradient-2)"/></g><g style="clip-path:url(#clip-path-4)"><rect x="44" y="107.1" width="26.7" height="47.03" style="fill:url(#radial-gradient-3)"/></g><g style="clip-path:url(#clip-path-5)"><rect x="14.7" y="107.1" width="26.7" height="47.03" style="fill:url(#radial-gradient-4)"/></g><g style="clip-path:url(#clip-path-6)"><rect x="63" y="25.1" width="22.6" height="11.32" style="fill:url(#radial-gradient-5)"/></g><g style="clip-path:url(#clip-path-7)"><rect x="64.8" y="37.5" width="13.7" height="3.6" style="fill:url(#radial-gradient-6)"/></g><g style="clip-path:url(#clip-path-8)"><rect x="15.1" y="51.4" width="12.9" height="6.72" style="fill:url(#radial-gradient-7)"/></g><g style="clip-path:url(#clip-path-9)"><rect x="2.2" y="46.9" width="24.2" height="5.75" style="fill:url(#radial-gradient-8)"/></g><g style="clip-path:url(#clip-path-10)"><rect x="12" y="41.9" width="13.8" height="2.02" style="fill:url(#radial-gradient-9)"/></g><g style="clip-path:url(#clip-path-11)"><rect x="3.1" y="31.5" width="23.8" height="7.83" style="fill:url(#radial-gradient-10)"/></g><g style="clip-path:url(#clip-path-12)"><rect x="16.6" y="26.9" width="12.4" height="7.84" style="fill:url(#radial-gradient-11)"/></g><g style="clip-path:url(#clip-path-13)"><rect x="13.8" y="13.1" width="18.3" height="17.75" style="fill:url(#radial-gradient-12)"/></g><g style="clip-path:url(#clip-path-14)"><rect x="27.8" y="15.4" width="8.1" height="12.23" style="fill:url(#radial-gradient-13)"/></g><g style="clip-path:url(#clip-path-15)"><rect x="31.7" y="1.9" width="8.6" height="23.58" style="fill:url(#radial-gradient-14)"/></g><g style="clip-path:url(#clip-path-16)"><rect x="43.2" y="10.5" width="2.1" height="13.8" style="fill:url(#radial-gradient-15)"/></g><g style="clip-path:url(#clip-path-17)"><rect x="48" width="5" height="24.34" style="fill:url(#radial-gradient-16)"/></g><g style="clip-path:url(#clip-path-18)"><rect x="52.6" y="13.2" width="6.4" height="13.02" style="fill:url(#radial-gradient-17)"/></g><g style="clip-path:url(#clip-path-19)"><rect x="56.7" y="8.6" width="15.6" height="20.12" style="fill:url(#radial-gradient-18)"/></g><g style="clip-path:url(#clip-path-20)"><rect x="60.4" y="22.9" width="11.3" height="9.37" style="fill:url(#radial-gradient-19)"/></g></svg>