<svg xmlns="http://www.w3.org/2000/svg" data-name="Layer 1" viewBox="0 0 883 802">
  <path fill="#f2f2f2" d="M883 401a399 399 0 0 1-34 162l-2 5-1 3-2 2a302 302 0 0 1-3 7v1l-2 3v1l-2 3-3 4-5 10-2 3a237 237 0 0 1-3 5l-1 3-5 6-2 3-6 9-5 7-3 5-3 3v1l-1 1-12 15-1 1-1 1-1 1-1 1a402 402 0 0 1-74 65l-11 7-2 2-1 1-2 1h-1l-6 4-2 1-1 1-8 4-14 7-3 2-3 2h-1l-3 1-2 1a385 385 0 0 1-14 6 392 392 0 0 1-42 15h-2l-18 5-32 6h-4l-4 1h-1a500 500 0 0 1-12 1l-3 1h-3l-31 1-34-1-7-1h-3l-3-1h-6a66 66 0 0 1-5-1 395 395 0 0 1-60-14l-4-1h-1l-8-3-11-4-3-1-6-3-10-4-10-4-2-1a397 397 0 0 1-50-29l-15-10-11-9a402 402 0 0 1-53-50v-1l-4-3v-1l-2-2-3-4-3-3-1-2-6-8-2-2-8-11-3-4-2-5-3-4-3-5a218 218 0 0 1-4-6 590 590 0 0 1-9-16l-1-3-2-3-2-3-1-3v-1a1 1 0 0 1-1 0l-1-3-1-3-1-2-2-4-1-3-1-1v-2l-2-4-2-4-2-5a399 399 0 0 1-20-71 400 400 0 0 1-5-41v-3l-1-28v-13a399 399 0 0 1 89-239l7-8a400 400 0 0 1 644 46l11 18a399 399 0 0 1 51 196Z"/>
  <path fill="#e4e4e4" d="m676 716-4 12-1 2-11 30-3 2-3 2h-1l-3 1-2 1-3 2a13 13 0 0 1-1-5 25 25 0 0 1 1-6l3-11v-1a39 39 0 0 0-3-25l-7-14a21 21 0 0 1 2-15 23 23 0 0 1 3-5l1-1a20 20 0 0 1 11-6c8-1 17 3 22 10a20 20 0 0 1 3 9c0 6-2 12-4 18Z"/>
  <path fill="#e4e4e4" d="M654 756c-2-3-5-6-6-10-2-13-7-22-15-27-2-1-2-4-4-7l-1-3-4-5a82 82 0 0 0-7-9l-3-3-2-2-1-1a48 48 0 0 0-5-3c-3-3-7-4-11-3a24 24 0 0 0-4 2l-2 1-2 1-1 1-9 5-1 1h-1l-2 1-6 3-3 2h-1v1l-4 2a31 31 0 0 0-9 8l-2 2a29 29 0 0 0-1 3l-1 2a31 31 0 0 0-1 20 20 20 0 0 0 1 3 24 24 0 0 0 1 3 44 44 0 0 0 9 10l1 1 1 1 12 8 2 6v12c3 7 12 4 18 5h2a392 392 0 0 0 42-15 384 384 0 0 0 14-6l2-1 3-1h1l3-2-3-6Z"/>
  <path fill="#e4e4e4" d="M580 659c2-6 0-10-8-12a2 2 0 0 0-3 0l-7 20c-6-2-11-1-13 6 3-7 1-11-7-13a2 2 0 0 0-3 1l-5 17a44 44 0 1 0 46-19Z"/>
  <path fill="#fff" d="M576 714a4 4 0 0 1-5-1 1 1 0 0 1 1-1 3 3 0 0 0 5-2 1 1 0 0 1 1-1 4 4 0 0 1-2 5Z"/>
  <ellipse cx="730" cy="753.8" fill="#fff" rx="4.3" ry="1.7" transform="translate(-428.1383 385.76639) rotate(-28.21872)"/>
  <path fill="#fff" d="M550 708a10 10 0 0 1 13-7 11 11 0 1 0-13 6v1Z"/>
  <circle cx="553.3" cy="700.1" r="3.7" fill="#3f3d56"/>
  <path fill="#fff" d="M575 694a10 10 0 0 1 13-6 11 11 0 1 0-13 6Z"/>
  <circle cx="579.9" cy="686.7" r="3.7" fill="#3f3d56"/>
  <rect width="17.8" height="1.8" x="742.2" y="741.6" fill="#fff" transform="translate(-463.38582 709.5156) rotate(-45.53938)"/>
  <rect width="17.8" height="1.8" x="744.7" y="746.2" fill="#fff" transform="translate(-440.67172 467.3633) rotate(-32.19276)"/>
  <rect width="17.8" height="1.8" x="700" y="764.2" fill="#fff" transform="translate(-290.35174 98.82902) rotate(-10.89806)"/>
  <rect width="17.8" height="1.8" x="702.5" y="768.9" fill="#fff" transform="translate(-411.82891 311.02882) rotate(-24.24467)"/>
  <path fill="#e6e6e6" d="M46 445C12 414-9 365 4 321a212 212 0 0 0 119 83c19 5 40 9 51 24 7 10 9 23 7 35-1 12-6 23-11 34l1 3c-45-9-91-24-125-55Z"/>
  <path fill="#fff" d="M5 321c8 37 29 71 58 96 6 5 13 10 20 13a45 45 0 0 0 24 3c7-1 14-3 22-2s14 5 19 11c6 8 8 17 10 27 3 10 5 21 12 29 0 1-1 2-2 1-12-14-10-35-19-51-4-7-10-14-19-15-7-1-15 0-22 1-8 2-16 1-23-1-8-3-15-8-21-13a176 176 0 0 1-37-41 184 184 0 0 1-24-57c-1-2 1-2 2-1Z"/>
  <path fill="#fff" d="M53 409a27 27 0 0 1-35 1c-1-1 0-3 1-2a25 25 0 0 0 33-1c1 0 2 1 1 2ZM103 434a52 52 0 0 0-12-37c0-1 1-2 2-1a54 54 0 0 1 12 38h-2ZM19 361a15 15 0 0 0 7-12c0-2 2-1 2 0a17 17 0 0 1-8 14 1 1 0 0 1-2-1 1 1 0 0 1 1-1Z"/>
  <path fill="#e6e6e6" d="M147 259v2a203 203 0 0 0 1 33l1 3a214 214 0 0 0 25 74 207 207 0 0 0 18 26c9 12 19 23 24 37a36 36 0 0 1 1 4l-43 61v1l-2 2-1-1v-1h-1v-1l-7-7c-15-18-29-38-40-60l-1-1a198 198 0 0 1-12-31 175 175 0 0 1-4-17 145 145 0 0 1-2-45 116 116 0 0 1 43-79Z"/>
  <path fill="#fff" d="M147 260c-15 34-19 74-11 111 2 8 4 15 9 23a45 45 0 0 0 17 16c6 3 13 6 19 12 5 5 8 13 8 21 0 9-4 18-8 27s-9 19-8 30h-3c0-19 13-34 16-52 2-8 0-17-6-24-5-5-12-8-19-12s-12-9-17-15c-4-7-7-15-9-23a176 176 0 0 1-5-55 184 184 0 0 1 16-60c0-2 2-1 1 1Z"/>
  <path fill="#fff" d="M133 359a27 27 0 0 1-29-21c0-1 2-2 2 0a25 25 0 0 0 27 19v2ZM158 408a52 52 0 0 0 13-36h2a54 54 0 0 1-14 38c0 1-2-1-1-2ZM134 300a15 15 0 0 0 14-6c1-1 2 1 1 2a17 17 0 0 1-15 6 1 1 0 0 1-1-1 1 1 0 0 1 1-1Z"/>
  <path fill="#e6e6e6" d="M539 263c5-33-4-70-31-90a154 154 0 0 1-32 101c-9 11-19 23-19 37 0 8 5 17 11 23 7 6 14 10 22 14l1 2c22-25 42-54 48-87Z"/>
  <path fill="#fff" d="M507 173a132 132 0 0 1 9 81 57 57 0 0 1-6 17 33 33 0 0 1-12 12c-5 3-10 5-14 9a20 20 0 0 0-5 15c0 7 3 14 5 20 4 7 7 14 7 22h1c1-14-9-25-12-38-1-6 0-12 4-17 4-4 9-7 14-9a35 35 0 0 0 13-12 53 53 0 0 0 6-16 128 128 0 0 0 3-40 134 134 0 0 0-12-44h-1Z"/>
  <path fill="#fff" d="M519 245a20 20 0 0 0 20-15h-1a18 18 0 0 1-20 14l1 1ZM501 282a38 38 0 0 1-10-26h-2a40 40 0 0 0 11 27l1-1ZM517 202a11 11 0 0 1-10-3c-1-1-2 0-1 1a13 13 0 0 0 11 4 1 1 0 0 0 1-1 1 1 0 0 0-1-1Z"/>
  <path fill="#e6e6e6" d="m398 201 1 1a148 148 0 0 1 13 20l1 2a156 156 0 0 1 19 54 151 151 0 0 1 1 23c0 10-1 22 3 31a26 26 0 0 0 1 3l52 17h2v-3l1-6c1-18 0-36-3-53l-1-1a144 144 0 0 0-6-23 127 127 0 0 0-5-12 106 106 0 0 0-20-27 84 84 0 0 0-59-26Z"/>
  <path fill="#fff" d="M398 202a132 132 0 0 1 55 58 57 57 0 0 1 6 17 33 33 0 0 1-3 17c-2 5-5 10-5 16a20 20 0 0 0 4 15c5 6 11 9 17 13 7 3 14 7 18 13 1 1 2 0 1-1-8-11-22-13-32-23-4-4-8-9-7-16 0-5 3-10 5-15a35 35 0 0 0 3-17 53 53 0 0 0-4-17 128 128 0 0 0-22-34 134 134 0 0 0-36-28v2Z"/>
  <path fill="#fff" d="M450 252a20 20 0 0 0 7-24h-1a18 18 0 0 1-7 23c-1 0 0 2 1 1ZM458 292a38 38 0 0 1-24-15c0-1-2 0-1 1a40 40 0 0 0 24 15c1 1 2-1 1-1ZM423 219a11 11 0 0 1-10 3l-1 1a13 13 0 0 0 12-3 1 1 0 0 0 0-1 1 1 0 0 0-1 0Z"/>
  <path fill="#3f3d56" d="M131 378a27 27 0 0 1 27 27 27 27 0 0 1-22 27v44h-17v-98Z"/>
  <path fill="#cacaca" d="M798 639v9l-12 15-2 2-2 2v-28Z"/>
  <path fill="#3f3d56" d="M752 619a13 13 0 0 0-13 13v19a13 13 0 0 0 13 14h32l2-2 12-15 1-1a382 382 0 0 0 11-16l8-12Z"/>
  <path fill="#3f3d56" d="M836 457a19 19 0 0 0-7-1h-5a20 20 0 0 0-6 1 19 19 0 0 0-13 19v159a18 18 0 0 0 0 3l5-7 8-12 5-6a398 398 0 0 0 26-50v-87a19 19 0 0 0-13-19Z"/>
  <path fill="#cacaca" d="M174 639v19l-13-17-2-2Z"/>
  <path fill="#3f3d56" d="M204 619h-58l5 9 8 11 2 2 13 17 2 3 4 4h24a13 13 0 0 0 13-14v-19a13 13 0 0 0-13-13Z"/>
  <path fill="#3f3d56" d="M141 459a20 20 0 0 0-9-3h-5a19 19 0 0 0-8 2 19 19 0 0 0-12 18v68a399 399 0 0 0 39 75l5 9V476a19 19 0 0 0-10-17Z"/>
  <polygon fill="#9e616a" points="359.293 751.489 376.909 747.447 369.703 677.575 343.703 683.541 359.293 751.489"/>
  <path fill="#2f2e41" d="M375 691a20 20 0 0 1 0-4 23 23 0 0 0-1-4 23 23 0 0 0-2-4l-1-2a16 16 0 0 1-1-2c-10-31-25-72-35-96-6-14-42-19-76-20l-12-1h-23l-28 2-18-12-4-2v2l-3 17-5 29 12 3 8 2 47 14 10 2h62l2 6a10 10 0 0 0 4 15l2 1 21 55a25 25 0 0 0 4 14l1 1 1 1 8 15 5-1 20-4 1-2c1-4 5-15 1-25ZM425 756a26 26 0 0 0-32-20l-14-6-4 3-16 11-1 1-5 1 6 26 66-15Z"/>
  <path fill="#9e616a" d="m338 715-6 49v1l-1 7-10-4-10-4v-49Z"/>
  <circle cx="208.7" cy="347.8" r="36.1" fill="#9e616a"/>
  <path fill="#2f2e41" d="m342 734-3-4a2479 2479 0 0 0-1-24v-1c0-6 1-11 3-17l1-5a38 38 0 0 0 2-12c-3-32-14-63-19-68a424 424 0 0 0-76-42l-6-3-2-1-8 1h-2l-7 1-46 5-7 1-10 1-9 1h-1v1a95 95 0 0 0 0 30 49 49 0 0 0 9 21l1 1a33 33 0 0 0 17 10l3 1a808 808 0 0 0 98 12l19 87a13 13 0 0 0 2 15l1 2 2 8 6 8v1h26c0-1 9-12 9-26l-2-4Z"/>
  <path fill="#9e616a" d="M341 444a14 14 0 0 0-17 12l-30 9 1 20 42-14a14 14 0 0 0 4-27Z"/>
  <path fill="#6c63ff" d="m321 476-22 9-1 1a11 11 0 0 1-15 5l-50 19s-23-23-39-43l6-33a64 64 0 0 1 8-22c33 7 51 53 51 53l60-12Z"/>
  <path fill="#2f2e41" d="M204 382c-10 2-19-1-27-7s-11-15-14-24c-1-7-2-14 1-20s11-10 17-7c-4-5-2-12 2-16s11-4 16-5c9-1 17-1 25 2s15 8 18 16a13 13 0 0 0 15-3 11 11 0 0 1-6 12l12-4c2 5-2 10-7 12s-9 0-14-2-8-5-13-6-11 1-13 5l-2 8c-1 3-2 5-5 5l-5-1a5 5 0 0 0-4 4 15 15 0 0 0 0 6l3 24Z"/>
  <path fill="#6c63ff" d="m249 561-2-3-14-21 4-22 1-7 3-15-1-35v-29l-3-9a34 34 0 0 0-18-20l-21-10a10 10 0 0 0-14 5v1c-3 0-15 2-26 10a39 39 0 0 0-14 23c-1 7-3 16-3 30l-1 30a449 449 0 0 0 3 59l1 6 3 4 3 4-1 4h-1c-1 2-2 3-1 5l1 10a114 114 0 0 0 2 15l1 4 4 10 3 9v2h1a11 11 0 0 1 1-2h1a415 415 0 0 1 72-47l16-10Z"/>
  <path fill="#2f2e41" d="M361 781a26 26 0 0 0-19-7l-10-9-2-1-9 4 10 4q16 7 33 12a26 26 0 0 0-3-3Z"/>
  <polygon fill="#ffb6b6" points="602.45 750.808 588.836 744.297 607.537 687.392 627.63 697.002 602.45 750.808"/>
  <path fill="#ffb6b6" d="m694 742-12 7h-2l-2-6-5-13-14-37 21-5 2 5 9 37 2 11ZM639 503a14 14 0 0 0 19 5 14 14 0 0 0 2-1l43 25-2-26-41-19a14 14 0 0 0-17-2 14 14 0 0 0-5 18h1Z"/>
  <path fill="#6c63ff" d="m684 522 8 5 34 21a20 20 0 0 0 28-7 20 20 0 0 0 2-13l-15-76a21 21 0 0 0-28-16 20 20 0 0 0-12 24l16 54-25-11Z"/>
  <path fill="#2f2e41" d="M824 597v-1a270 270 0 0 0-8-30 92 92 0 0 0-7-18h-1v-1l-3 1-48 18-13 5h-1l-2 9-33-4-26-3-8-1a25 25 0 0 0-19 5 26 26 0 0 0-10 17v3l-2 86 1 2 22 45h32l-15-39v-1a17 17 0 0 0 2-15l2-5c3-10 2-15-1-22a54 54 0 0 1-3-16v-7l25 5 8 2 23 5a163 163 0 0 0 60 1l1-1a19 19 0 0 0 5-2 29 29 0 0 0 5-4l8-12 5-6c2-6 2-11 1-16Z"/>
  <path fill="#2f2e41" d="m825 581-1-2a137 137 0 0 0-5-14l-9-17-5-9-3-5h-1l-46 6-18 2-1 9v2l-1 6-1 8-26-4-26-3-15-2a25 25 0 0 0-18 5 26 26 0 0 0-10 18l-1 2-13 32a206 206 0 0 0-15 60l-10 32h1l21 2h6l12-18 4-6a95 95 0 0 0 5-11l27-63 6 1 26 4c28 3 52 3 73 1l18-3 6-1 1-1a26 26 0 0 0 18-16 26 26 0 0 0 1-15Z"/>
  <ellipse cx="725.2" cy="359" fill="#ffb6b6" rx="32.4" ry="33.1"/>
  <path fill="#6c63ff" d="M802 535v-1l-5-12-4-10v-21a267 267 0 0 0-22-53 40 40 0 0 0-33-28 9 9 0 0 0 1-6 9 9 0 0 0-3-6 9 9 0 0 0-7-2l-15 2a9 9 0 0 0-8 10 10 10 0 0 0 1 2 88 88 0 0 0-22 50 52 52 0 0 0 0 5 53 53 0 0 0 3 17 71 71 0 0 0 10 17l3 3 3 3 2 4 3 4 13 30h7l1 7v1l4 16v1l6-3 36-17 26-12Z"/>
  <path d="M847 530a71 71 0 0 0 13 21l3 3 5 8c19-14 34-70 34-70l-21-4Z" opacity=".2" style="isolation:isolate" transform="translate(-158.48656 -49)"/>
  <path fill="#ffb6b6" d="M676 395a14 14 0 0 1-5 19 14 14 0 0 1-2 1l2 50-22-13 2-45a14 14 0 0 1 6-17 14 14 0 0 1 19 5Z"/>
  <path fill="#6c63ff" d="m673 446-24 4 1 49a20 20 0 0 0 10 17 20 20 0 0 0 23-3l56-53a21 21 0 0 0 2-29 20 20 0 0 0-29-3v1a21 21 0 0 0-2 1l-36 42Z"/>
  <path fill="#2f2e41" d="m694 740-1 1-11 2h-4l-6 2 2 8 8-4 12-7 1-1ZM607 742l-15-8-2-1-4 9-26 6a6 6 0 0 0-1 12l25 10 8-7-1 9 9 4 10-33ZM812 345c-6-7-8-15-13-23-4-7-12-13-20-12-5 2-10 6-12 12-2 5-3 11-3 17 0-12-8-24-19-27-11-4-24 0-31 10a17 17 0 0 0-22-1c-7 6-8 16-3 23s14 10 21 6l3 3c-2 5 1 11 6 13 4 1 9 1 10 5 1 3 0 6-2 8s-5 4-5 7c0 5 4 8 9 9 10 2 21-3 27-12a39 39 0 0 0 8-30c0-2 0-4 2-4 6-2 23 2 28 6 6 4 10 9 15 14 5 4 11 7 18 6 5-1 9-5 12-9l6-15c-11 7-27 4-35-6Z"/>
  <path fill="#e4e4e4" d="M708 542v190l-11 7V554c0-5-1-9-4-9H527c-2 0-4 4-4 9v246l-7 1h-3l-1-3V537c1-12 5-21 11-21h175a5 5 0 0 1 1 0c5 2 8 10 9 21v5ZM441 542v258l-11-1V554c0-5-2-9-5-9H249c-3 0-5 4-5 9v170l-11-9V537c1-12 5-21 11-21h186a5 5 0 0 1 2 0c4 2 8 10 9 21v5Z"/>
  <polygon fill="#3f3d56" points="381.974 456.372 393.555 507.327 400.955 515.433 406.294 515.433 384.291 422.787 383.202 438.526 383.202 438.537 381.974 456.372"/>
  <path fill="#3f3d56" d="M421 518a1 1 0 0 0-1 0 2 2 0 0 0 0-1l-1-1-7-7a3 3 0 0 0-2-1h-84a3 3 0 0 0-3 3 3 3 0 0 0 1 1v1l1 3 2 3v1a3 3 0 0 0 3 2h88a3 3 0 0 0 3-4Z"/>
  <path d="m485 568 1 1a3 3 0 0 0 2 2h88a3 3 0 0 0 3-4Z" opacity=".2" style="isolation:isolate" transform="translate(-158.48656 -49)"/>
  <polygon points="383.202 438.526 383.202 438.537 402.044 515.433 406.294 515.433 384.291 422.787 383.202 438.526" opacity=".2" style="isolation:isolate"/>
  <path fill="#3f3d56" d="M413 223h-3a3 3 0 0 0-2 1l-2 1-18 23a3 3 0 0 0-1 2l-1 8-26 195a3 3 0 0 0 1 2l12 33 1 2a3 3 0 0 0 1 1h2a3 3 0 0 0 3 0 3 3 0 0 0 1-2l3-24 2-15 2-13 27-210a3 3 0 0 0-2-4Z"/>
  <path d="m565 274-34 263h1v2a3 3 0 0 0 2 1h2a3 3 0 0 0 3-2l35-262a3 3 0 0 0-3-4h-3a3 3 0 0 0-2 1Z" opacity=".2" style="isolation:isolate" transform="translate(-158.48656 -49)"/>
  <polygon fill="#6c63ff" points="405.226 232.333 387.423 257.744 366.263 418.745 377.735 441.504 405.226 232.333"/>
  <polygon fill="#3f3d56" points="578.645 456.372 567.064 507.327 559.664 515.433 554.325 515.433 576.329 422.787 577.417 438.526 577.417 438.537 578.645 456.372"/>
  <path fill="#3f3d56" d="M634 508h-83a3 3 0 0 0-2 1l-8 8a2 2 0 0 0-1 1 3 3 0 0 0 3 4h88a3 3 0 0 0 2-2l1-1 1-3 2-4a3 3 0 0 0 0-1 3 3 0 0 0-3-3Z"/>
  <path d="M792 568v1a3 3 0 0 1-3 2h-88a3 3 0 0 1-2-4Z" opacity=".2" style="isolation:isolate" transform="translate(-158.48656 -49)"/>
  <polygon points="577.417 438.526 577.417 438.537 558.575 515.433 554.325 515.433 576.329 422.787 577.417 438.526" opacity=".2" style="isolation:isolate"/>
  <path fill="#3f3d56" d="m601 453-27-203a3 3 0 0 0-1-2l-19-23-1-1a3 3 0 0 0-2-1h-3a3 3 0 0 0-3 4l28 210 2 13 2 15 3 24a3 3 0 0 0 1 2 3 3 0 0 0 2 0h2a3 3 0 0 0 2-1l1-2 12-33a3 3 0 0 0 1-2Z"/>
  <path d="m713 274 33 263-1 2a3 3 0 0 1-1 1h-2a3 3 0 0 1-4-2l-34-262a3 3 0 0 1 2-4h3a3 3 0 0 1 2 1Z" opacity=".2" style="isolation:isolate" transform="translate(-158.48656 -49)"/>
  <polygon fill="#6c63ff" points="555.393 232.333 573.196 257.744 594.356 418.745 582.884 441.504 555.393 232.333"/>
  <path fill="#3f3d56" d="M224 557a8 8 0 0 1 0 1v1a9 9 0 0 1-8 7h-38v89a9 9 0 0 1-2 6l-2-3-13-17v-75h-17a9 9 0 0 1-1-18h73a9 9 0 0 1 8 9ZM824 557a9 9 0 0 1-5 8 9 9 0 0 1-3 1h-17v81l-1 1-12 15a9 9 0 0 1-5-8v-89h-37a9 9 0 0 1-4-1 9 9 0 0 1-5-6 9 9 0 0 1 1-6 8 8 0 0 1 1-2 9 9 0 0 1 7-3h71a9 9 0 0 1 9 9ZM824 390a27 27 0 0 0-28 27 27 27 0 0 0 22 27v44h18v-98Z"/>
  <path fill="#9e616a" d="M348 489a14 14 0 0 0-19 7l-32 1-4 15 45 2a14 14 0 0 0 10-25Z"/>
  <path fill="#6c63ff" d="m323 516-33-1h-4l-65-1s-18-17-34-34l3-16a64 64 0 0 1 21-39c22 14 35 44 35 44l22 9a95 95 0 0 1 43 13l7 4Z"/>
  <path fill="#ccc" d="M424 798h116l-24 3h-68l-24-3Z"/>
  <path fill="#ccc" d="M447 739c3-20 15-40 34-47a94 94 0 0 0 1 65c3 8 7 16 5 24-2 5-6 9-11 12l-15 5-1 1c-9-19-15-39-13-60Z"/>
  <path fill="#fff" d="M481 692a80 80 0 0 0-19 46 35 35 0 0 0 0 11 20 20 0 0 0 5 9l7 7a12 12 0 0 1 1 10l-7 11c-3 3-7 7-8 12l-1-1c3-8 10-12 14-20 2-3 2-7 1-10l-7-8a21 21 0 0 1-5-9 32 32 0 0 1-1-11 78 78 0 0 1 5-24 82 82 0 0 1 15-23c0-1 1 0 0 0Z"/>
  <path fill="#fff" d="M462 732a12 12 0 0 1-9-12h1a11 11 0 0 0 8 12c1 0 1 1 0 0ZM466 757a23 23 0 0 0 10-14l1 1a24 24 0 0 1-10 14l-1-1ZM471 708a7 7 0 0 0 6-1v1a8 8 0 0 1-7 0h1Z"/>
  <path fill="#ccc" d="M540 727v1a90 90 0 0 0-12 9l-1 1a95 95 0 0 0-20 28 92 92 0 0 0-5 14c-2 6-3 13-7 18a16 16 0 0 1-1 1l-33 1h-2l1-1v-1l1-4a135 135 0 0 1 11-30v-1a88 88 0 0 1 8-12 78 78 0 0 1 5-6 65 65 0 0 1 16-13 51 51 0 0 1 39-5Z"/>
  <path fill="#fff" d="M540 728a80 80 0 0 0-42 25 35 35 0 0 0-7 8 20 20 0 0 0-1 11l1 10a12 12 0 0 1-6 8c-3 3-8 4-12 4-4 1-9 2-13 5v-1c6-5 15-4 22-7 4-2 7-5 8-9l-1-10a21 21 0 0 1 1-10 32 32 0 0 1 6-9 78 78 0 0 1 19-16 82 82 0 0 1 25-10v1Z"/>
  <path fill="#fff" d="M501 748a12 12 0 0 1 0-15h1a11 11 0 0 0 0 15h-1ZM490 770a23 23 0 0 0 16-4c0-1 1 0 0 0a24 24 0 0 1-17 5l1-1ZM523 734a7 7 0 0 0 5 3v1a8 8 0 0 1-6-4v-1l1 1Z"/>
  <circle cx="557.8" cy="745.1" r="10.6" fill="#ccc"/>
  <path fill="#ccc" d="M592 787h-2l-18 5a11 11 0 1 1 20-5ZM653 764l-3 1-2 1a385 385 0 0 1-14 6h-1a11 11 0 0 1 19-10 12 12 0 0 1 1 2Z"/>
  <circle cx="595.1" cy="719.1" r="10.6" fill="#ccc"/>
  <path fill="#fff" d="M498 139c-62 16-131 26-202 29a252 252 0 0 1-30 0c-23-2-42-9-64-13l-32-6 7-8c23 2 45 8 68 11 39 5 82-1 112-14l39-22a18 18 0 0 1 6-2l12 3c23 12 58 22 90 17 2 2-2 4-6 5ZM640 181h1a24 24 0 0 1-4-3ZM832 205l-41 2a254 254 0 0 1-31 0c-22-2-41-9-63-13-20-4-44-5-56-13 32-6 66 6 99 10a237 237 0 0 0 81-4l11 18Z"/>
  <path fill="#fff" d="M530 355c-31-108-50-219-50-331v-8h-10v8c0 112-18 223-50 331a57 57 0 0 0-2 16 16 16 0 0 0 16 15h20a21 21 0 1 0 42 0h16v45a9 9 0 1 0 2 0v-45h3a16 16 0 0 0 16-15 57 57 0 0 0-3-16Z"/>
</svg>
