<svg xmlns="http://www.w3.org/2000/svg" data-name="Layer 1"  viewBox="0 0 261.7 156.6">
  <path d="m20.5 22.6 3.4 4.8a10.1 10.1 0 0 1 2.4 6.6v3.9c0 3.1-2.3 6.5-6 9.8s-5.5 3.2-7.9 3.2-7.7-1-12.4-2.7L.6 47a25.8 25.8 0 0 0 5.3.6 20.7 20.7 0 0 0 16.8-9.5 2.9 2.9 0 0 0 .5-1.5 4.7 4.7 0 0 0-.6-1.9 57.4 57.4 0 0 0-5.8-7.7l3.4-4.4ZM57.2 36.2v4.5h-4a13.9 13.9 0 0 1-3.6 7.3c-3.7 4.1-9 6-11.6 6a35 35 0 0 1-13.8-3.6l.8-1.1a20.2 20.2 0 0 0 7.1 1.2 21.7 21.7 0 0 0 13.3-4.8c2.3-1.8 3.9-3.2 4.5-5h-2.3c-9.8 0-14.8-2.2-14.8-7.2a8.1 8.1 0 0 1 2.4-5.6 10.1 10.1 0 0 1 7.4-3.4c4.4 0 9 4.5 10.3 11.7Zm-10.9-5.1a7.8 7.8 0 0 0-5.1-2c-2.6 0-5.4 1.7-5.4 3.1s2.3 2.9 5.2 3.5a48.5 48.5 0 0 0 8.7.5 10.3 10.3 0 0 0-3.4-5.1Z" style="fill:#FFFFFF" transform="translate(49.1 31.3)"/>
  <path d="M59.2 36.2a37.2 37.2 0 0 0 12.6-1.7v-.2c-2.2-1-4.5-3-6.7-4.5a7.7 7.7 0 0 0-3.3-1.5h-1.7l1.9-4.1h1.5A79.7 79.7 0 0 1 76.3 23a47.9 47.9 0 0 1 13.9 1.8l-1.7 3.8-8.3 5.7a29 29 0 0 0 10.9 1.9h2v4.5h-1.5a32.5 32.5 0 0 1-15.9-4.1h-.2a33.1 33.1 0 0 1-16.8 4.1h-1.5c-2.6 0-3.4-1.4-3.4-2.3s.8-2.2 3.4-2.2Zm17.4-3.4a83.9 83.9 0 0 0 8.8-5.2v-.2a55.6 55.6 0 0 0-8.9-.9 61.5 61.5 0 0 0-8.8.7l2.8 2a71 71 0 0 0 5.9 3.5Z" style="fill:#FFFFFF" transform="translate(49.1 31.3)"/>
  <path d="M131.7 25.7a29 29 0 0 1 .8 6.3 9.8 9.8 0 0 1-1.8 4.8 9.4 9.4 0 0 1-7.1 3.8 9 9 0 0 1-6-2.9h-.3a13.4 13.4 0 0 1-8.4 3c-2.7 0-4.3-.9-4.6-2.9h-.2c-2.9 2.5-7 2.9-10.2 2.9h-.8c-2.7 0-3.4-1.4-3.4-2.3s.8-2.2 3.4-2.2h1.6c4.3 0 7.8-.8 10.1-3.2l2.6-2.8 3.7-.9h.2c-1.9 2.3-3.2 4-3.2 5.1s1 1.7 2.5 1.7a9.2 9.2 0 0 0 4.2-1c1.7-.9 1.9-1.9 3.4-5.6l2.9-1.2h.3a11.7 11.7 0 0 0-.6 3.5c0 2.7 2.6 4 4.9 4s2.6-.5 2.6-1.5a24.3 24.3 0 0 0-1.2-5.7 26.7 26.7 0 0 1 4.3-3.2Zm-16.5-2.4-5.6-3.7a37.3 37.3 0 0 1 3.8-3.3 47 47 0 0 1 5.4 3.7 21.6 21.6 0 0 1-3.6 3.3Zm2.6-7.5-5.6-3.7a37.3 37.3 0 0 1 3.8-3.3 37.8 37.8 0 0 1 5.4 3.8 20.7 20.7 0 0 1-3.6 3.2Zm6.7 7a59.8 59.8 0 0 0-5.7-3.6 37.4 37.4 0 0 1 3.8-3.4 38.7 38.7 0 0 1 5.5 3.8 20.7 20.7 0 0 1-3.6 3.2ZM174.6 6c.4 8.7.7 16.4.7 24.8a5.7 5.7 0 0 0 2.4 4.5 9.3 9.3 0 0 0 4.7.9h.5v4.5h-.9c-3.5 0-6-.8-7.6-2.6h-.1a22.6 22.6 0 0 1-1.7 5.2 15.6 15.6 0 0 1-5.5 4 23.1 23.1 0 0 1-10 2.2 15.9 15.9 0 0 1-10-3 10.1 10.1 0 0 1-3.4-8c0-2.9 1.3-5.9 3.2-8.8l1.8.5a11.9 11.9 0 0 0-2 6.1 7 7 0 0 0 2.4 5.4 11.5 11.5 0 0 0 8.3 2.9 21.1 21.1 0 0 0 8.3-1.7 12.3 12.3 0 0 0 5.2-3.3 6.6 6.6 0 0 0 .3-2.3c0-5.5-.3-14.6-1.4-28.3a31.9 31.9 0 0 1 4.4-3.1Z" style="fill:#FFFFFF" transform="translate(49.1 31.3)"/>
  <path d="M212.6 4.3c-1.1 1.4-2.2 2.9-3.5 4.3l-7.7 1.7c-5.1 1.3-10.5 2.9-16 4.7v.2l8 1.7-1.1 1.7c7.8 4.3 12.3 7.9 12.3 11.6s-1.2 5.9-3.1 7.3-7.8 3.2-16.7 3.2h-1.9c-2.6 0-3.4-1.4-3.4-2.3s.8-2.2 3.4-2.2h3c4.9 0 9.5-.3 12.8-1.8 1.7-.8 2.6-1.5 2.6-1.9s-1.6-3.7-3.6-5.4-7.4-4.8-14.4-8.6a3.4 3.4 0 0 1-1.4-3 4.4 4.4 0 0 1 1.1-2.3c.4-.6 1.4-1.2 3.6-2 5.6-2.1 14.7-4.4 25.8-7.1ZM184.2 9a13.4 13.4 0 0 1 1.3-2.3A225.9 225.9 0 0 1 210.4 0h.1l-1.6 2a221.8 221.8 0 0 0-24.4 7Z" style="fill:#FFFFFF" transform="translate(49.1 31.3)"/>
</svg>
