<svg id="Layer_1" data-name="Layer 1" xmlns="http://www.w3.org/2000/svg" xmlns:xlink="http://www.w3.org/1999/xlink"  viewBox="0 0 461.5 201.1"><defs><radialGradient id="radial-gradient" cx="96.49" cy="163.61" r="36.99" gradientUnits="userSpaceOnUse"><stop offset="0" stop-color="#ffe600"/><stop offset="1" stop-color="#f47721"/></radialGradient><radialGradient id="radial-gradient-2" cx="156.15" cy="137.64" r="23.92" xlink:href="#radial-gradient"/><radialGradient id="radial-gradient-3" cx="214.89" cy="120.61" r="35.77" xlink:href="#radial-gradient"/><radialGradient id="radial-gradient-4" cx="309.73" cy="116.28" r="56.21" xlink:href="#radial-gradient"/><radialGradient id="radial-gradient-5" cx="408.43" cy="85.81" r="62.24" xlink:href="#radial-gradient"/><radialGradient id="radial-gradient-6" cx="41.62" cy="152.45" r="34.75" xlink:href="#radial-gradient"/><radialGradient id="radial-gradient-7" cx="396.2" cy="10.2" r="9.56" xlink:href="#radial-gradient"/><radialGradient id="radial-gradient-8" cx="315.51" cy="167.38" r="12.16" gradientTransform="translate(-45.8 102.9) rotate(-13.6)" xlink:href="#radial-gradient"/><radialGradient id="radial-gradient-9" cx="316.34" cy="4.91" r="12" gradientTransform="translate(28.4 26.3) scale(0.93 0.79)" xlink:href="#radial-gradient"/></defs><title>Logo_1</title><path d="M123.6,154q-.7,18.9-31,37.6c-3.5,2.8-9.2,5-16.9,6.6-10.8,0-17-6.9-18.4-20.6v-1.5a63.3,63.3,0,0,1,5.9-25.8l.7.8h.7c-2.4,8.6-3.7,14.5-3.7,17.7v5.9c0,6.7,5.2,10.6,15.5,11.7s24.4-8.6,41.3-25.7l.7-.8v-2.2c0-1.8-5.9-3.1-17.7-3.7-3.9-1.9-5.9-4.9-5.9-8.8Q98.1,129,107.4,129h.7c4.5,0,8.2,3,11,9s9.5,7,16.6,7v11.1h-4.4A15.1,15.1,0,0,1,123.6,154Zm-22.1-13.4v1.5c0,1.4,3.6,2.2,11,2.2-2.2-3.5-4.7-5.2-7.4-5.2h-2.2Z" transform="translate(0 0)" style="fill:url(#radial-gradient)"/><path d="M158,118.1q18.5,0,25.8,9.6c-2.7,6.9-6.7,10.3-11.8,10.3,0,.7-2,1.7-5.9,3v.7l14,5.2v8.8l-1.5,1.5q-12.2,0-22.8-11.1c-9.7,7.4-17.3,11.1-22.9,11.1l-.7-.8v-9.5c0-1,4.2-2.5,12.5-4.5l3.7-2.9c-3.8-3.8-7.7-6-11.8-6.6h-1.4l-5.9,1.4-.8-2.2c2.4-7.8,7-11.8,14-11.8C142.5,119.1,147.7,118.4,158,118.1Zm-5.9,11.1v.7c1.1,0,3.3,1.5,6.6,4.4l7.4-2.9v-1.5l-7.4-.7Z" transform="translate(0 0)" style="fill:url(#radial-gradient-2)"/><path d="M246.6,126.6H248c1.4,0,2.4,2.5,3,7.4-1.2,11.3-5.4,16.9-12.5,16.9q-5.1,0-8.1-6.6c-5.3,6.4-9.7,9.5-13.3,9.5h-4.4c-6.9,0-10.3-4.1-10.3-12.5-8.1,9.8-15.7,14.8-22.9,14.8l-.7-.8v-9.6c0-1.1,2.7-1.8,8.1-2.2,2.3-.3,8.5-5,18.4-14h1.5v8.1c2,3,4.4,4.5,7.4,4.5h3.6c5.4,0,10.6-4.7,15.5-14l.7-.8h.8l.7.8h.8l-1.5,6.6c.3,1.7,1.8,3.2,4.4,4.4h5.2l1.4-1.5-1.4-2.2Zm-30.2-26,8.1,5.2,2.2-5.2h.7c2.3.8,5.5,3,9.6,6.7v1.4c-1.9,4-3.6,5.9-5.2,5.9l-7.3-4.4-3.7,5.2H220l-8.8-5.9C213.8,103.6,215.5,100.6,216.4,100.6Zm2-15.4h1.5q8.1,5.3,8.1,6.6c-2.5,5.4-4.2,8.1-5.2,8.1-5.9-3.4-8.8-5.9-8.8-7.4C216.2,87.6,217.7,85.2,218.4,85.2Z" transform="translate(0 0)" style="fill:url(#radial-gradient-3)"/><path d="M334.4,53.7q4.2,0,8.1,48.6,0,33,9.6,39a42.4,42.4,0,0,0,6.6,4.4v8.9l-1.5,1.5c-6.3-2.1-12-6.8-16.9-14l-.7-3.7h-.8q0,16.9-44.2,39l-9.5,1.5h-4.5c-11.4,0-18-9.1-19.9-27.3v-.7c0-11.8,2.3-19.9,6.7-24.3l.7.7v.8c-2.4,7.2-3.7,13.1-3.7,17.6v.8c0,11.3,4.7,18.1,14,20.6l5.2.7q20.3,0,48.6-26.5c2.4-2.3,3.7-6,3.7-11V117a359.4,359.4,0,0,0-4.4-53.8C332.1,56.9,333,53.7,334.4,53.7Z" transform="translate(0 0)" style="fill:url(#radial-gradient-4)"/><path d="M442.3,35.3h.7l3.7,3.6v1.5c0,6-5.1,14.4-15.4,25.1l-5.9,8.1h-.8v-.8c0-3.9,5.4-12.3,16.2-25V46.3h-.7l-2.9-.7c-9.3,0-32.6,10-70,30.2l-5.9,5.1c8.8,3.7,13.2,6.2,13.2,7.4s-1.4,1.5-4.4,1.5c.5,1.8,11.8,9.7,33.9,23.5,4.9,4.9,7.4,9.6,7.4,14,0,12.4-10.3,22-31,28.8H356.9l-1.5-1.5v-8.9l1.5-1.4h18.4c12.9,0,23.4-5.2,31.7-15.5v-.7q-3.7-4.9-35.4-25.1L356.9,88.3c0-11.7,3.4-19,10.3-22.1C403.1,46.2,428.2,35.9,442.3,35.3ZM371.8,55l-1.9-1.5-.3-.6c0-5.9,8.7-12.4,26.1-19.7a253.4,253.4,0,0,1,28.7-9.9l14.8-4.1,7.7-2.2a31.8,31.8,0,0,1,7.9-1.4c4.5,0,6.7,2.7,6.7,8.1,0,2.5-1.7,7.1-5,13.8s-6,10.6-7.9,12.1a8,8,0,0,1-.6-3.7c0-1.9,1.4-5.2,4.1-9.7s4-7.5,4-8.9-1.2-2-3.7-2c-.6,0-4.1.8-10.6,2.4C412.2,34,388.8,43.1,371.8,55Z" transform="translate(0 0)" style="fill:url(#radial-gradient-5)"/><path d="M70.7,126.3h1.5c7.3,1,11,4.2,11,9.6L81,144.7c-3.2-4.4-6.6-6.6-10.3-6.6H70q-16.5,0-45.7,36.1L14,178.6c-7.2,0-11.9-5.2-14-15.5v-3.7c0-7.6,3.2-16.4,9.6-26.5h.7v.8C5.4,147.9,2.9,157,2.9,160.9c1,5.4,3.5,8.1,7.4,8.1,6.8,0,16.3-7.8,28.7-23.6C52.4,132.7,63,126.3,70.7,126.3Z" transform="translate(0 0)" style="fill:url(#radial-gradient-6)"/><path d="M387.3,20.4,403.4,9.7a3.8,3.8,0,0,0,1.1-5.2c-2.2-3.5-8.7-6.9-10.1-2.3C390.8,14.4,398.4,8.3,387.3,20.4Z" transform="translate(0 0)" style="fill:url(#radial-gradient-7)"/><path d="M396.1,7.9S395,2.8,397.2,3s5.7,3.3,2.1,4.7S396.1,7.9,396.1,7.9Z" transform="translate(0 0)" style="fill:#020202;stroke:#231f20;stroke-miterlimit:10"/><polygon points="313.4 182.4 315.8 187 285.9 201.1 313.4 182.4" style="fill:url(#radial-gradient-8)"/><path d="M332.8,21.2s-.2,10.2-4.3,11.7-8.3-10.4-8.3-10.4,2.4,7.4-1.2,9.9-9.4-5.9-8.2-9.9c0,0-3,12.9,4.7,15.9s7.1-5,7.1-5S337.1,50.7,332.8,21.2Z" transform="translate(0 0)" style="fill:url(#radial-gradient-9)"/></svg>