<svg xmlns="http://www.w3.org/2000/svg" data-name="Layer 1" viewBox="0 0 749.5 551.5">
  <path fill="#e6e6e6" d="M464 443H24a18 18 0 0 1-19-18V109a18 18 0 0 1 19-18h440a18 18 0 0 1 18 18v316a18 18 0 0 1-18 18ZM24 101a9 9 0 0 0-9 8v316a9 9 0 0 0 9 9h440a9 9 0 0 0 9-9V109a9 9 0 0 0-9-8Z"/>
  <circle cx="234.4" cy="516" r="35.4" fill="#e6e6e6"/>
  <circle cx="234.4" cy="516" r="27.2" fill="#fff"/>
  <path fill="#6c63ff" d="M248 531a1 1 0 0 1-1-1l-27-27a1 1 0 0 1 2-1l27 27a1 1 0 0 1-1 2Z"/>
  <path fill="#6c63ff" d="M250 519a2 2 0 0 0 0-3 26 26 0 0 0-8-8 19 19 0 0 0-10-3 18 18 0 0 0-6 1l4 4a7 7 0 0 1 9 6 16 16 0 0 0 4 7l1 2h1a27 27 0 0 0 5-6ZM237 522a7 7 0 0 1-7-8 5 5 0 0 0-2-3l-3-4h-1a31 31 0 0 0-5 6 2 2 0 0 0 0 3 26 26 0 0 0 8 7 19 19 0 0 0 10 4 18 18 0 0 0 6-1v-1l-4-3a7 7 0 0 1-2 0Z"/>
  <circle cx="100" cy="516" r="35.4" fill="#e6e6e6"/>
  <circle cx="100" cy="516" r="27.2" fill="#fff"/>
  <path fill="#6c63ff" d="m110 533-6-2a44 44 0 0 1-11-8 41 41 0 0 1-8-11c-3-5-2-8-2-9a7 7 0 0 1 3-3 14 14 0 0 1 2-1 2 2 0 0 1 2 0 5 5 0 0 1 2 1 27 27 0 0 1 4 6 6 6 0 0 1 0 3 4 4 0 0 1-1 2v2l4 3 4 5h2v-1a4 4 0 0 1 3-1 6 6 0 0 1 2 1 30 30 0 0 1 6 4 5 5 0 0 1 1 2 2 2 0 0 1 0 2 14 14 0 0 1-1 2 7 7 0 0 1-3 3 5 5 0 0 1-3 0Z"/>
  <circle cx="369.8" cy="516" r="35.4" fill="#e6e6e6"/>
  <circle cx="369.8" cy="516" r="27.2" fill="#fff"/>
  <path fill="#6c63ff" d="M380 511a1 1 0 0 0-2 1v3c0 4-3 6-8 6s-9-2-9-6v-3a1 1 0 1 0-2 0v3a11 11 0 0 0 10 11v5a1 1 0 0 0 1 1 1 1 0 0 0 1-1v-5a11 11 0 0 0 10-11v-3a1 1 0 0 0-1-1Z"/>
  <path fill="#6c63ff" d="M370 517a9 9 0 0 1-5-1 3 3 0 0 1-1-2v-5c0-1 2-3 6-3 3 0 6 2 6 3v5c0 2-3 3-6 3Z"/>
  <path fill="#fff" d="M464 439H24a14 14 0 0 1-14-14V109a14 14 0 0 1 14-14h440a14 14 0 0 1 14 14v316a14 14 0 0 1-14 14Z"/>
  <circle cx="241.6" cy="244.4" r="46.6" fill="#ffb8b8" data-name="ab6171fa-7d69-4734-b81c-8dff60f9761b"/>
  <path fill="#2f2e41" d="M190 200c0-6 3-11 15-14 0 0 19-25 45-12 0 0 13-2 22 11 0 0 10-5 14 4 0 0 11 20 7 41s-6 23-6 23 5-43-25-40-53-7-60 16c-6 19-5 28-5 28s-19-18-12-33c3-8 4-16 5-24Z" data-name="bf427902-b9bf-4946-b5d7-5c1c7e04535e"/>
  <path fill="#6c63ff" d="M115 439h258l-3-40c0-22-18-45-18-45l-6-4-54-16-14-18a15 15 0 0 0-12-6h-44a15 15 0 0 0-10 4l-27 25-40 19-6 4-4 3s-10 12-18 48l-2 26Z"/>
  <path fill="#cacaca" d="M748 40H1a1 1 0 0 1 0-2h747a1 1 0 0 1 0 2Z"/>
  <ellipse cx="25.5" cy="12.2" fill="#3f3d56" rx="11.9" ry="12.2"/>
  <ellipse cx="66.7" cy="12.2" fill="#3f3d56" rx="11.9" ry="12.2"/>
  <ellipse cx="107.9" cy="12.2" fill="#3f3d56" rx="11.9" ry="12.2"/>
  <path fill="#3f3d56" d="M724 7h-30a2 2 0 0 1 0-4h30a2 2 0 0 1 0 4ZM724 16h-30a2 2 0 0 1 0-5h30a2 2 0 0 1 0 5ZM724 24h-30a2 2 0 0 1 0-4h30a2 2 0 0 1 0 4Z"/>
  <path fill="#e6e6e6" d="M703 459H556a18 18 0 0 1-18-18V340a18 18 0 0 1 18-18h147a18 18 0 0 1 19 18v101a18 18 0 0 1-19 18ZM556 331a9 9 0 0 0-8 9v101a9 9 0 0 0 8 8h147a9 9 0 0 0 9-8V340a9 9 0 0 0-9-9Z"/>
  <path fill="#fff" d="M703 455H556a14 14 0 0 1-14-14V340a14 14 0 0 1 14-14h147a14 14 0 0 1 14 14v101a14 14 0 0 1-14 14Z"/>
  <path fill="#e6e6e6" d="M644 359c0-5-2-9-8-12-7-5-16-6-22 2a9 9 0 0 0-9 8c-5 6 1 28 2 37h27l10-1 3-19c2-6 1-11-3-15ZM677 442a44 44 0 0 1 7-4l-26-31-17-4-29 1-18 9-26 29a43 43 0 0 1 7 4l-2 10h18l5-7 4-5-1 12h58v-10l6 9 2-2 1 3h15l-4-13a3 3 0 0 0 0-1ZM703 227H556a18 18 0 0 1-18-18V108a18 18 0 0 1 18-18h147a18 18 0 0 1 19 18v101a18 18 0 0 1-19 18ZM556 100a9 9 0 0 0-8 8v101a9 9 0 0 0 8 8h147a9 9 0 0 0 9-8V108a9 9 0 0 0-9-8Z"/>
  <path fill="#fff" d="M703 223H556a14 14 0 0 1-14-14V108a14 14 0 0 1 14-14h147a14 14 0 0 1 14 14v101a14 14 0 0 1-14 14Z"/>
  <path fill="#e6e6e6" d="M611 144a19 19 0 0 0 38 3c1 0 8-8 5-14a31 31 0 0 1-2-10c0-2-2-4-6-5 0 0-8-11-19-5 0 0-5-1-9 4 0 0-4-2-6 2 0 0-4 8-3 17a73 73 0 0 0 2 8ZM682 214c-3-15-7-20-7-20l-2-1-2-2h-1l-16-8-11-10a6 6 0 0 0-5-2h-18a6 6 0 0 0-5 2l-5 8-23 7-2 1s-8 10-8 19l-1 17h107a73 73 0 0 0-1-11Z"/>
  <path fill="#e6e6e6" d="M612 363H419a24 24 0 0 1-23-24V208a24 24 0 0 1 23-24h193a24 24 0 0 1 23 24v131a24 24 0 0 1-23 24ZM419 196a11 11 0 0 0-11 12v131a11 11 0 0 0 11 11h193a11 11 0 0 0 11-11V208a11 11 0 0 0-11-12Z"/>
  <path fill="#fff" d="M612 189H419a18 18 0 0 0-18 19v131a18 18 0 0 0 18 18h193a18 18 0 0 0 18-18V208a18 18 0 0 0-18-19Z"/>
  <circle cx="549.3" cy="229.3" r="15" fill="#2f2e41"/>
  <circle cx="518.5" cy="257.3" r="38" fill="#2f2e41"/>
  <circle cx="511.9" cy="266.7" r="30.9" fill="#9e616a"/>
  <path fill="#2f2e41" d="M500 228a35 35 0 0 1 46 42c-16 0-33 0-48-10l-2-10-4 9c-6 1-11 1-15-3a36 36 0 0 1 23-28Z"/>
  <path fill="#2f2e41" d="M572 193c11-3 23 2 30 11 7 10 8 22 4 33s-13 19-21 27c-9 8-17 17-20 28a32 32 0 0 0 24 38c-10 2-21 4-32 1-10-2-20-12-19-22 1-8 6-14 10-21a156 156 0 0 0 19-32c2-6 4-12 3-18a21 21 0 0 0-17-18l-3-4c1-11 11-21 22-23Z"/>
  <path fill="#2f2e41" d="M583 356c-2-20-14-19-14-19l-29-6-13-22-33-1-12 21-24 3c-2 0-11 2-13 19v6h138v-1Z"/>
</svg>
