<svg xmlns="http://www.w3.org/2000/svg" data-name="Layer 1" viewBox="0 0 886.1 652.4">
  <path fill="#f1f1f1" d="M754 650v-72s28 51 0 72Z"/>
  <path fill="#f1f1f1" d="m756 650-53-49s56 14 53 49Z"/>
  <polygon fill="#e6e6e6" points="191.188 0 63.729 0 0 110.382 63.729 220.765 191.188 220.765 254.917 110.382 191.188 0"/>
  <path fill="#fff" d="M71 208h113l57-98-57-98H71l-57 98Z"/>
  <circle cx="69.5" cy="81.1" r="5.2" fill="#e2e2e2"/>
  <circle cx="69.5" cy="110.4" r="5.2" fill="#e2e2e2"/>
  <circle cx="69.5" cy="139.6" r="5.2" fill="#e2e2e2"/>
  <rect width="99.2" height="8.4" x="91.4" y="77" fill="#e2e2e2"/>
  <rect width="99.2" height="8.4" x="91.4" y="106.2" fill="#e2e2e2"/>
  <rect width="99.2" height="8.4" x="91.4" y="135.4" fill="#e2e2e2"/>
  <polygon fill="#e6e6e6" points="822.386 0 694.927 0 631.198 110.382 694.927 220.765 822.386 220.765 886.115 110.382 822.386 0"/>
  <path fill="#fff" d="M702 208h113l57-98-57-98H702l-56 98Z"/>
  <circle cx="700.7" cy="81.1" r="5.2" fill="#e2e2e2"/>
  <circle cx="700.7" cy="110.4" r="5.2" fill="#e2e2e2"/>
  <circle cx="700.7" cy="139.6" r="5.2" fill="#e2e2e2"/>
  <rect width="99.2" height="8.4" x="722.6" y="77" fill="#e2e2e2"/>
  <rect width="99.2" height="8.4" x="722.6" y="106.2" fill="#e2e2e2"/>
  <rect width="99.2" height="8.4" x="722.6" y="135.4" fill="#e2e2e2"/>
  <polygon fill="#e6e6e6" points="506.167 1.072 379.946 1.072 316.836 110.382 379.946 219.693 506.167 219.693 569.279 110.382 506.167 1.072"/>
  <path fill="#fff" d="M387 207h112l56-97-56-97H387l-56 97Z"/>
  <circle cx="385.7" cy="81.4" r="5.2" fill="#6c63ff"/>
  <circle cx="385.7" cy="110.4" r="5.2" fill="#6c63ff"/>
  <circle cx="385.7" cy="139.3" r="5.2" fill="#6c63ff"/>
  <rect width="98.2" height="8.3" x="407.4" y="77.3" fill="#6c63ff"/>
  <rect width="98.2" height="8.3" x="407.4" y="106.2" fill="#6c63ff"/>
  <rect width="98.2" height="8.3" x="407.4" y="135.2" fill="#6c63ff"/>
  <polygon fill="#9f616a" points="550.665 639.737 538.405 639.736 532.573 592.448 550.667 592.449 550.665 639.737"/>
  <path fill="#2f2e41" d="M554 652h-40v-1a15 15 0 0 1 16-15h24Z"/>
  <polygon fill="#9f616a" points="664.665 639.737 652.405 639.736 646.573 592.448 664.667 592.449 664.665 639.737"/>
  <path fill="#2f2e41" d="M668 652h-40v-1a15 15 0 0 1 16-15h24ZM546 400s-11 28-9 39-10 95-9 102-1 44 0 50-4 13-1 19l7 18 19-2 3-16s9-1 7-10 8-68 8-68l25-82 35 75s2 53 6 59-4 22 0 27 9 17 9 17h22v-12s13-7 0-30l-9-132-9-60Z"/>
  <circle cx="600.6" cy="187.5" r="27.5" fill="#a0616a"/>
  <path fill="#2f2e41" d="m577 186 6 14c2 6 5 13 11 16 7 5 16 3 22-2a36 36 0 0 0-16-65v5l-6-5a6 6 0 0 1-9 1c1 4 0 8-3 10-3 4-13 7-12 13 0 4 6 9 7 13Z"/>
  <path fill="#9f616a" d="M676 440a12 12 0 0 0-5-17l1-26-16-5-1 38a12 12 0 0 0 21 10Z"/>
  <path fill="#3f3d56" d="M621 232s-21-11-41-4-31 16-31 16l13 68-18 92s91-7 99 0 9-8 9-8l-7-87 13-56Z"/>
  <path fill="#9f616a" d="M531 442a12 12 0 0 0 0-18l8-25-14-9-11 36a12 12 0 0 0 17 16Z"/>
  <path fill="#3f3d56" d="M557 244h-8s-13 8-13 20-19 150-19 150l20 3 18-96 13-26ZM635 253h23s7 7 10 24 7 81 7 81l-2 59h-18l-2-76-12-50Z"/>
  <path fill="#cbcbcb" d="M805 652H424a1 1 0 0 1 0-2h381a1 1 0 0 1 0 2Z"/>
</svg>
