<svg xmlns="http://www.w3.org/2000/svg" data-name="Layer 1" viewBox="0 0 787.8 453.1">
  <circle cx="406.7" cy="6.5" r="6.5" fill="#f2f2f2"/>
  <circle cx="406.7" cy="32.2" r="6.5" fill="#f2f2f2"/>
  <circle cx="433.7" cy="6.5" r="6.5" fill="#f2f2f2"/>
  <circle cx="433.7" cy="32.2" r="6.5" fill="#f2f2f2"/>
  <circle cx="460.7" cy="6.5" r="6.5" fill="#f2f2f2"/>
  <circle cx="460.7" cy="32.2" r="6.5" fill="#f2f2f2"/>
  <circle cx="460.7" cy="58" r="6.5" fill="#f2f2f2"/>
  <circle cx="460.7" cy="83.8" r="6.5" fill="#f2f2f2"/>
  <circle cx="487.7" cy="6.5" r="6.5" fill="#f2f2f2"/>
  <circle cx="487.7" cy="32.2" r="6.5" fill="#f2f2f2"/>
  <circle cx="487.7" cy="58" r="6.5" fill="#f2f2f2"/>
  <circle cx="487.7" cy="83.8" r="6.5" fill="#f2f2f2"/>
  <circle cx="514.7" cy="6.5" r="6.5" fill="#f2f2f2"/>
  <circle cx="514.7" cy="32.2" r="6.5" fill="#f2f2f2"/>
  <circle cx="541.7" cy="6.5" r="6.5" fill="#f2f2f2"/>
  <circle cx="541.7" cy="32.2" r="6.5" fill="#f2f2f2"/>
  <path fill="#3f3d56" d="M739 341h-48c0 2-49 3-49 3a13 13 0 0 0-2 2 12 12 0 0 0-3 8v2a13 13 0 0 0 12 12h90a13 13 0 0 0 13-12v-2a13 13 0 0 0-13-13Z"/>
  <rect width="13" height="84" x="688.1" y="367.8" fill="#3f3d56"/>
  <path fill="#3f3d56" d="M738 451c0 2-20 1-44 1s-44 1-44-1 20-12 44-12 44 11 44 12Z"/>
  <polygon fill="#ffb8b8" points="629.1 440.257 616.84 440.256 611.007 392.968 629.102 392.969 629.1 440.257"/>
  <path fill="#2f2e41" d="M608 437h24v15h-39a15 15 0 0 1 15-15Z"/>
  <polygon fill="#ffb8b8" points="609.962 433.414 598.265 429.743 606.857 382.878 624.121 388.296 609.962 433.414"/>
  <path fill="#2f2e41" d="m591 424 23 7-5 14-37-11a15 15 0 0 1 19-10ZM706 333a38 38 0 0 0-1-7l-3-3-5-7h-6l-6 1h-2v10h12a3 3 0 0 1 3 2v1a3 3 0 0 1-3 2h-72a28 28 0 0 0-3 2 15 15 0 0 0-5 8l-14 64a5 5 0 0 0 1 4 4 4 0 0 0 1 1l9 3a5 5 0 0 0 2 1 5 5 0 0 0 4-3l7-19 11-29 5-11c5 1 47 10 61-5a16 16 0 0 0 3-5 21 21 0 0 0 1-10Z"/>
  <path fill="#2f2e41" d="m719 336-1-3-8-10h-8a343 343 0 0 0-17 2h-2v2h12a3 3 0 0 1 3 2v1a3 3 0 0 1-3 2h-44l-5 2c-10 4-17 9-18 15l-2 7-7 31-1 6-4 20h-1a5 5 0 0 0 1 2 4 4 0 0 0 1 2 5 5 0 0 0 1 1l9 3a5 5 0 0 0 2 1 4 4 0 0 0 2-1 5 5 0 0 0 2-2l20-51 3-8c5 1 47 10 61-5a17 17 0 0 0 4-11 30 30 0 0 0 0-8Z"/>
  <path fill="#6c63ff" d="M717 248v-1a24 24 0 0 0-21-7 79 79 0 0 0-10 2 25 25 0 0 0-11 6 24 24 0 0 0-8 18v6h10a5 5 0 0 1 2 0 6 6 0 0 1 4 6v46l2 1h1l6 2h3a3 3 0 0 1 3 2 135 135 0 0 1 15 8 5 5 0 0 0 2 0 4 4 0 0 0 3-1 6 6 0 0 0 1 0 5 5 0 0 0 1-4 128 128 0 0 1-1-24 268 268 0 0 1 4-40 25 25 0 0 0-6-20Z"/>
  <path fill="#6c63ff" d="M676 248a12 12 0 0 0-1 0 11 11 0 0 0-14 6l-7 16v2h23a5 5 0 0 1 2 0v-1l3-7a12 12 0 0 0-6-16Z"/>
  <circle cx="697.8" cy="207.2" r="24.6" fill="#ffb8b8"/>
  <path fill="#ffb8b8" d="M722 278h-14l-1 10v2l-22 10-2 1v17h2l6-2 28-8a11 11 0 0 0 8-10v-21Z"/>
  <path fill="#6c63ff" d="M727 258a12 12 0 0 0-23 2l1 24a4 4 0 0 0 2 4 4 4 0 0 0 3 1l11-1h3a4 4 0 0 0 3-2 4 4 0 0 0 1-3Z"/>
  <path fill="#3f3d56" d="M686 325h-3v2h9l-6-2Zm0 0h-3v2h9l-6-2Zm9 0h-10v-47a8 8 0 0 0-6-7 7 7 0 0 0-2-1h-89a8 8 0 0 0-7 8v49a8 8 0 0 0 7 7h107a5 5 0 0 0 5-4 5 5 0 0 0-5-5Zm3 5a3 3 0 0 1-3 2H588a6 6 0 0 1-5-5v-49a6 6 0 0 1 5-6h89a5 5 0 0 1 2 0 6 6 0 0 1 4 6v49h12a3 3 0 0 1 3 2v1Zm-12-5h-3v2h9l-6-2Z"/>
  <circle cx="632.8" cy="302.2" r="6" fill="#6c63ff"/>
  <path fill="#2f2e41" d="M693 197c-6 6-14 11-21 7-4-2-6-7-5-13 2-9 9-14 17-18 10-5 21-9 32-8s22 11 22 22c-1 9-8 17-6 26 3 9 13 12 22 13s19-1 27 5c9 7 9 22 2 31s-17 15-28 19c-15 6-30 10-45 6s-28-19-26-34c1-6 4-12 8-18s6-11 7-18c0-5-1-11-5-14a4 4 0 0 1-2-5Z"/>
  <path fill="#3f3d56" d="M1 453h773a1 1 0 1 0 0-2H1a1 1 0 1 0 0 2ZM40 354v2a13 13 0 0 0 13 12h90a13 13 0 0 0 12-12v-2a12 12 0 0 0-2-8 13 13 0 0 0-3-2s-49-1-49-3H53a13 13 0 0 0-13 13Z"/>
  <rect width="13" height="84" x="297" y="591.2" fill="#3f3d56" transform="translate(400.9559 1042.96761) rotate(-180)"/>
  <path fill="#3f3d56" d="M54 451c0 2 20 1 44 1s44 1 44-1-20-12-44-12-44 11-44 12Z"/>
  <polygon fill="#a0616a" points="163.53 441.018 175.79 441.018 181.622 393.73 163.528 393.731 163.53 441.018"/>
  <path fill="#2f2e41" d="M199 452h-38v-14h24a15 15 0 0 1 14 14Z"/>
  <polygon fill="#a0616a" points="182.668 434.176 194.365 430.505 185.773 383.64 168.509 389.058 182.668 434.176"/>
  <path fill="#2f2e41" d="m220 434-36 12-5-14 23-7a15 15 0 0 1 18 9ZM174 412l-22-58c-5 1-47 10-61-5-5-5-6-13-3-22l8-11c3 1 77 5 82 27l14 63a5 5 0 0 1-3 6l-9 3a4 4 0 0 1-1 0 5 5 0 0 1-5-3Z"/>
  <path fill="#2f2e41" d="m161 419-22-58c-5 1-47 10-61-5-5-5-6-13-3-22l8-11c3 1 77 5 82 27l14 63a5 5 0 0 1-3 6l-9 3a4 4 0 0 1-1 0 5 5 0 0 1-5-3Z"/>
  <path fill="#a0616a" d="M141 305a19 19 0 0 1-16-9l-7-12 17-9 7 9 49-5a11 11 0 0 1 0-1 11 11 0 0 1 8-4 11 11 0 0 1 9 3 11 11 0 0 1 2 13 11 11 0 0 1-17 3l-47 12a19 19 0 0 1-5 0Z"/>
  <path fill="#ccc" d="M75 337a5 5 0 0 1-2-4c3-19-1-45-4-64a25 25 0 0 1 28-29 80 80 0 0 1 10 2 25 25 0 0 1 18 25c0 18 3 41 5 49a5 5 0 0 1-1 4 4 4 0 0 1-3 2c-18 2-37 10-47 15a5 5 0 0 1-2 1 4 4 0 0 1-2-1Z"/>
  <path fill="#ccc" d="M123 290a4 4 0 0 1-3-3l-10-23a11 11 0 1 1 21-9l10 23a5 5 0 0 1-2 6l-13 6a4 4 0 0 1-3 0Z"/>
  <circle cx="94.9" cy="208" r="24.6" fill="#a0616a"/>
  <path fill="#2f2e41" d="M80 230a4 4 0 0 1-6 0 44 44 0 0 1-12-16c-4-8-4-17 0-24 3-6 8-10 14-13a23 23 0 0 1 7-3 9 9 0 0 1 7 1 8 8 0 0 1 3 7 22 22 0 0 1 9-7 11 11 0 0 1 8-1c4 2 6 5 8 9a19 19 0 0 1 1 9 11 11 0 0 1-4 8c-3 2-7 2-10 1l-10-3c-3 0-8 1-10 4l-2 7-1 14a19 19 0 0 1-1 6 3 3 0 0 1-1 1Z"/>
  <path fill="#ccc" d="M169 381h-40a4 4 0 0 1-3-2 4 4 0 0 1-1-3 102 102 0 0 0 0-48 4 4 0 0 1 1-3 4 4 0 0 1 3-2h40a4 4 0 0 1 4 4 168 168 0 0 1 0 50 4 4 0 0 1-4 4Z"/>
  <path fill="#fff" d="M138 345v-2a3 3 0 0 1 3-3h21a3 3 0 0 1 3 3v2a3 3 0 0 1-3 3h-21a3 3 0 0 1-3-3ZM138 357v-1a3 3 0 0 1 3-3h21a3 3 0 0 1 3 3v1a3 3 0 0 1-3 3h-21a3 3 0 0 1-3-3Z"/>
  <path fill="#6c63ff" d="M151 309a4 4 0 0 1-1-4 104 104 0 0 0 0-48 4 4 0 0 1 1-4 4 4 0 0 1 4-2h40a4 4 0 0 1 4 4 170 170 0 0 1 0 52 4 4 0 0 1-4 3h-40a4 4 0 0 1-4-1Z"/>
  <path fill="#fff" d="M187 273h-21a3 3 0 0 1-3-3v-1a3 3 0 0 1 3-3h21a3 3 0 0 1 3 3v1a3 3 0 0 1-3 3ZM187 286h-21a3 3 0 0 1-3-3v-2a3 3 0 0 1 3-3h21a3 3 0 0 1 3 3v2a3 3 0 0 1-3 3Z"/>
  <path fill="#a0616a" d="M133 331a11 11 0 0 1-7-6 10 10 0 0 1 0-1l-53-15a11 11 0 0 1-8-11v-20l20 1 1 12 45 20a11 11 0 0 1 1-1 11 11 0 1 1 1 21Z"/>
  <path fill="#ccc" d="M66 287a4 4 0 0 1-1-3l1-25a11 11 0 1 1 23 1l-2 25a5 5 0 0 1-4 4H69a4 4 0 0 1-3-2Z"/>
  <path fill="#3f3d56" d="M291 153h-82a9 9 0 0 1-9-9V55a9 9 0 0 1 9-9h82a9 9 0 0 1 9 9v89a9 9 0 0 1-9 9ZM209 48a7 7 0 0 0-7 7v89a7 7 0 0 0 7 7h82a7 7 0 0 0 7-7V55a7 7 0 0 0-7-7ZM441 153h-82a9 9 0 0 1-9-9V55a9 9 0 0 1 9-9h82a9 9 0 0 1 9 9v89a9 9 0 0 1-9 9ZM359 48a7 7 0 0 0-7 7v89a7 7 0 0 0 7 7h82a7 7 0 0 0 7-7V55a7 7 0 0 0-7-7Z"/>
  <path fill="#6c63ff" d="M225 83h-8a5 5 0 0 1-4-4v-8a5 5 0 0 1 4-5h8a5 5 0 0 1 5 5v8a5 5 0 0 1-5 4Z"/>
  <path fill="#ccc" d="M225 108h-8a5 5 0 0 1-4-4v-8a5 5 0 0 1 4-5h8a5 5 0 0 1 5 5v8a5 5 0 0 1-5 4Z"/>
  <path fill="#6c63ff" d="M284 78h-38a3 3 0 0 1-3-3v-1a3 3 0 0 1 3-3h38a3 3 0 0 1 3 3v1a3 3 0 0 1-3 3Z"/>
  <path fill="#ccc" d="M376 81h-8a5 5 0 0 1-5-4v-8a5 5 0 0 1 5-5h8a5 5 0 0 1 4 5v8a5 5 0 0 1-4 4ZM434 77h-37a3 3 0 0 1-3-3v-2a3 3 0 0 1 3-3h37a3 3 0 0 1 3 3v2a3 3 0 0 1-3 3Z"/>
  <path fill="#6c63ff" d="M434 101h-69a3 3 0 0 1-3-3v-2a3 3 0 0 1 3-3h69a3 3 0 0 1 3 3v2a3 3 0 0 1-3 3Z"/>
  <path fill="#ccc" d="M434 118h-69a3 3 0 0 1-3-3v-2a3 3 0 0 1 3-3h69a3 3 0 0 1 3 3v2a3 3 0 0 1-3 3ZM434 135h-69a3 3 0 0 1-3-3v-2a3 3 0 0 1 3-3h69a3 3 0 0 1 3 3v2a3 3 0 0 1-3 3Z"/>
  <path fill="#3f3d56" d="M591 153h-82a9 9 0 0 1-9-9V55a9 9 0 0 1 9-9h82a9 9 0 0 1 9 9v89a9 9 0 0 1-9 9ZM509 48a7 7 0 0 0-7 7v89a7 7 0 0 0 7 7h82a7 7 0 0 0 7-7V55a7 7 0 0 0-7-7Z"/>
  <path fill="#ccc" d="M584 77h-37a3 3 0 0 1-3-3v-2a3 3 0 0 1 3-3h37a3 3 0 0 1 3 3v2a3 3 0 0 1-3 3ZM584 101h-69a3 3 0 0 1-3-3v-2a3 3 0 0 1 3-3h69a3 3 0 0 1 3 3v2a3 3 0 0 1-3 3ZM584 118h-69a3 3 0 0 1-3-3v-2a3 3 0 0 1 3-3h69a3 3 0 0 1 3 3v2a3 3 0 0 1-3 3ZM584 135h-69a3 3 0 0 1-3-3v-2a3 3 0 0 1 3-3h69a3 3 0 0 1 3 3v2a3 3 0 0 1-3 3ZM284 103h-38a3 3 0 0 1-3-3v-1a3 3 0 0 1 3-3h38a3 3 0 0 1 3 3v1a3 3 0 0 1-3 3ZM225 133h-8a5 5 0 0 1-4-4v-8a5 5 0 0 1 4-5h8a5 5 0 0 1 5 5v8a5 5 0 0 1-5 4ZM284 128h-38a3 3 0 0 1-3-3v-1a3 3 0 0 1 3-3h38a3 3 0 0 1 3 3v1a3 3 0 0 1-3 3Z"/>
  <path fill="#6c63ff" d="M531 72a9 9 0 0 0-9-9v9Z"/>
  <path fill="#ccc" d="M521 73v-9a9 9 0 1 0 9 9Z"/>
</svg>
